# xmcd
#
# Track frame offsets:
#	150
#	14596
#	29705
#	43518
#	60369
#	79367
#	91082
#	106783
#	118470
#	130372
#	145723
#	160003
#	174291
#	194621
#	213816
#	225624
#
# Disc length: 3159 seconds
#
# Revision: 1
# Processed by: cddbd v1.5PL3 Copyright (c) Steve Scherf et al.
# Submitted via: audiograbber 1.82.01
#
DISCID=d50c5510
DTITLE=Musikparade - Musik für's Herz
DYEAR=2000
DGENRE=Schlager und Volgsmusik
TTITLE0=Die Klostertaler - Ja, im schönen Klostertal
TTITLE1=Stefan Mross - Heimatmelodie
TTITLE2=Heino - Grichischer Wein
TTITLE3=Alpenrebellen - Hoamatland
TTITLE4=Zellertaler Schürzenjäger - Mein Herz, es schreit nach Zärtlichkeit
TTITLE5=Gescwister Hofmann - Aber lustig muß er sein
TTITLE6=Maria Hellwig - Wenn'st niemand mehr zum Reden hast
TTITLE7=Franzl Lang - Mein Edelweiß
TTITLE8=Marianne and Michael - Das alte Försterhaus
TTITLE9=Judith and Mel - Land im Norden
TTITLE10=Alpentrio Tirol - Da drob'n auf'm Berg steht a Kircherl
TTITLE11=Gunter Emmerich - Die Glocken des Lebens
TTITLE12=Vico Torriani - La Pastorella
TTITLE13=Jantje Smit - Ich sing das Lied für Dich allein
TTITLE14=Günter Wewel - Kein schöner Land
TTITLE15=Lolita - Der weiße Mond von Maratonga
EXTD=FUV-Musikparade\nCD-ABO\nLessingstraße 7-9\n61440 Oberursel
EXTT0=
EXTT1=
EXTT2=
EXTT3=
EXTT4=
EXTT5=
EXTT6=
EXTT7=
EXTT8=
EXTT9=
EXTT10=
EXTT11=
EXTT12=
EXTT13=
EXTT14=
EXTT15=
PLAYORDER=
